<svg xmlns="http://www.w3.org/2000/svg" width="208" height="56" viewBox="0 0 208 56" fill="none" role="img" aria-labelledby="hearth-wordmark-title">
  <title id="hearth-wordmark-title">Hearth</title>
  <g transform="translate(8 8)">
    <rect x="0" y="0" width="40" height="40" rx="10" fill="#f3eee0"/>
    <g transform="translate(9 2) scale(0.9)">
      <path d="M 13 40 C 3 32 1 18 6 10 C 9 4 11 0 13 0 C 15 0 19 7 21 14 C 24 23 23 34 13 40 Z" fill="#5a6b3a"/>
      <path d="M 13 34 C 8 27 7 17 11 11 C 12 8 12.5 5.5 13 5 C 13.5 5.5 14 8 15 11 C 17 17 17 27 13 34 Z" fill="rgba(255,255,255,0.22)"/>
    </g>
  </g>
  <text x="60" y="28" dominant-baseline="central"
        font-family="'Playfair Display', Garamond, Georgia, 'Times New Roman', serif"
        font-size="34" font-weight="700" font-style="italic" fill="#5a6b3a"
        letter-spacing="0.5">Hearth</text>
</svg>
